<?xml version="1.0" standalone="no"?>
<!DOCTYPE svg PUBLIC "-//W3C//DTD SVG 20010904//EN"
 "http://www.w3.org/TR/2001/REC-SVG-20010904/DTD/svg10.dtd">
<svg version="1.0" xmlns="http://www.w3.org/2000/svg"
 width="185.000000pt" height="185.000000pt" viewBox="0 0 185.000000 185.000000"
 preserveAspectRatio="xMidYMid meet">
<metadata>
Created by potrace 1.11, written by Peter Selinger 2001-2013
</metadata>
<g transform="translate(0.000000,185.000000) scale(0.100000,-0.100000)"
fill="#000000" stroke="none">
<path d="M1235 1839 c-28 -8 -30 -12 -32 -56 0 -26 -8 -73 -16 -103 -9 -30
-18 -68 -21 -85 -10 -64 -26 -137 -31 -146 -4 -5 -8 -30 -10 -56 -2 -27 -11
-65 -19 -85 -11 -26 -13 -44 -7 -61 7 -18 4 -37 -14 -75 -13 -28 -21 -53 -18
-55 2 -3 -12 -43 -32 -89 -25 -55 -37 -97 -36 -125 0 -23 -4 -45 -9 -48 -22
-13 -10 -54 23 -79 76 -58 110 -54 211 29 60 49 176 108 233 118 28 5 32 3 41
-21 14 -41 12 -141 -5 -187 -8 -22 -15 -72 -17 -111 -1 -38 -6 -76 -10 -83
-18 -28 -27 -313 -11 -361 6 -19 11 -41 11 -47 1 -7 2 -17 3 -23 1 -11 100
-13 118 -2 6 4 14 24 18 45 7 36 29 50 38 25 2 -7 8 5 11 27 4 22 14 56 23 76
13 33 13 39 -1 66 -10 21 -15 59 -15 119 0 49 -1 103 -1 119 -1 31 -2 72 -3
116 0 14 10 39 21 55 12 16 24 50 27 75 3 26 17 75 32 110 22 54 27 84 31 194
3 81 10 137 18 150 7 11 15 47 18 80 4 33 9 82 12 108 6 64 -1 84 -37 103 -40
20 -107 28 -124 14 -20 -16 -44 -95 -50 -165 -18 -191 -44 -297 -78 -319 -12
-8 -40 -17 -62 -21 -22 -3 -78 -15 -125 -26 -128 -30 -125 -31 -128 16 -2 22
4 68 12 102 8 35 12 90 10 125 -3 44 2 84 16 133 11 38 20 80 20 91 0 12 16
64 36 115 45 118 48 173 10 206 -29 25 -35 26 -81 12z m395 -1139 c0 -5 -2
-10 -4 -10 -3 0 -8 5 -11 10 -3 6 -1 10 4 10 6 0 11 -4 11 -10z"/>
<path d="M620 1829 c-20 -4 -48 -22 -65 -41 -16 -19 -47 -47 -68 -62 -56 -41
-116 -159 -117 -229 0 -80 30 -117 108 -132 52 -10 80 30 88 128 8 82 72 197
111 197 27 0 28 -54 3 -202 -14 -82 -16 -90 -44 -223 -14 -66 -28 -151 -31
-190 -3 -38 -14 -88 -25 -110 -10 -23 -21 -54 -23 -70 -16 -86 -52 -171 -89
-204 -11 -11 -50 -30 -85 -42 -152 -50 -255 -160 -318 -339 -30 -83 -33 -106
-26 -217 1 -14 20 -33 57 -58 50 -33 60 -37 97 -31 61 10 124 51 146 94 10 20
31 47 45 59 14 13 26 29 26 36 0 7 20 35 45 62 38 42 45 55 41 80 -7 36 1 50
33 60 21 6 23 11 18 48 -4 30 -2 44 10 52 12 9 13 16 4 32 -9 18 -7 22 17 29
61 18 63 17 194 -111 85 -84 101 -95 132 -95 19 0 46 5 59 11 23 10 47 46 47
69 0 13 -49 60 -62 60 -5 0 -44 32 -86 70 -90 84 -138 114 -213 130 -78 17
-86 35 -43 95 20 28 34 61 34 77 0 18 14 47 36 76 29 38 35 53 31 78 -4 26 0
37 25 60 43 41 56 72 55 131 0 32 8 69 21 97 12 24 23 55 26 68 16 79 36 167
44 188 10 28 7 93 -9 160 -11 49 -40 87 -79 102 -33 14 -126 18 -170 7z m-187
-1346 c-3 -27 -13 -57 -22 -68 -10 -11 -34 -54 -54 -95 -38 -80 -117 -170
-148 -170 -11 0 -21 10 -25 24 -8 32 21 141 50 191 44 73 172 185 196 170 4
-3 5 -26 3 -52z"/>
</g>
</svg>
